<svg width="187" height="137" viewBox="0 0 187 137" fill="none" xmlns="http://www.w3.org/2000/svg">
<g opacity="0.8" clip-path="url(#clip0_2234_8808)">
<path d="M5.3356 40.2644C5.3356 41.7838 4.19226 42.9234 2.6678 42.9234C1.14334 42.9234 0 41.7838 0 40.2644C0 38.745 1.14334 37.6055 2.6678 37.6055C4.19226 37.6055 5.3356 38.8716 5.3356 40.2644Z" fill="white"/>
<path d="M28.0753 40.2644C28.0753 41.7838 26.932 42.9234 25.4075 42.9234C23.8831 42.9234 22.7397 41.7838 22.7397 40.2644C22.7397 38.745 23.8831 37.6055 25.4075 37.6055C26.805 37.6055 28.0753 38.8716 28.0753 40.2644Z" fill="white"/>
<path d="M50.6881 40.2644C50.6881 41.7838 49.5448 42.9234 48.0203 42.9234C46.4959 42.9234 45.3525 41.7838 45.3525 40.2644C45.3525 38.745 46.4959 37.6055 48.0203 37.6055C49.5448 37.6055 50.6881 38.8716 50.6881 40.2644Z" fill="white"/>
<path d="M73.4279 40.2644C73.4279 41.7838 72.2845 42.9234 70.7601 42.9234C69.2356 42.9234 68.0923 41.7838 68.0923 40.2644C68.0923 38.745 69.2356 37.6055 70.7601 37.6055C72.2845 37.6055 73.4279 38.8716 73.4279 40.2644Z" fill="white"/>
<path d="M96.1676 40.2644C96.1676 41.7838 95.0243 42.9234 93.4998 42.9234C91.9754 42.9234 90.832 41.7838 90.832 40.2644C90.832 38.745 91.9754 37.6055 93.4998 37.6055C94.8972 37.6055 96.1676 38.8716 96.1676 40.2644Z" fill="white"/>
<path d="M118.908 40.2644C118.908 41.7838 117.765 42.9234 116.24 42.9234C114.716 42.9234 113.572 41.7838 113.572 40.2644C113.572 38.745 114.716 37.6055 116.24 37.6055C117.765 37.6055 118.908 38.8716 118.908 40.2644Z" fill="white"/>
<path d="M141.52 40.2644C141.52 41.7838 140.377 42.9234 138.852 42.9234C137.328 42.9234 136.185 41.7838 136.185 40.2644C136.185 38.745 137.328 37.6055 138.852 37.6055C140.377 37.6055 141.52 38.8716 141.52 40.2644Z" fill="white"/>
<path d="M164.26 40.2644C164.26 41.7838 163.117 42.9234 161.592 42.9234C160.068 42.9234 158.924 41.7838 158.924 40.2644C158.924 38.745 160.068 37.6055 161.592 37.6055C163.117 37.6055 164.26 38.8716 164.26 40.2644Z" fill="white"/>
<path d="M187 40.2644C187 41.7838 185.857 42.9234 184.332 42.9234C182.808 42.9234 181.665 41.7838 181.665 40.2644C181.665 38.745 182.808 37.6055 184.332 37.6055C185.73 37.6055 187 38.8716 187 40.2644Z" fill="white"/>
<path d="M5.3356 59.1297C5.3356 60.6491 4.19226 61.7886 2.6678 61.7886C1.14334 61.7886 0 60.6491 0 59.1297C0 57.6103 1.14334 56.4707 2.6678 56.4707C4.19226 56.4707 5.3356 57.6103 5.3356 59.1297Z" fill="white"/>
<path d="M28.0753 59.1297C28.0753 60.6491 26.932 61.7886 25.4075 61.7886C23.8831 61.7886 22.7397 60.6491 22.7397 59.1297C22.7397 57.6103 23.8831 56.4707 25.4075 56.4707C26.805 56.4707 28.0753 57.6103 28.0753 59.1297Z" fill="white"/>
<path d="M50.6881 59.1297C50.6881 60.6491 49.5448 61.7886 48.0203 61.7886C46.4959 61.7886 45.3525 60.6491 45.3525 59.1297C45.3525 57.6103 46.4959 56.4707 48.0203 56.4707C49.5448 56.4707 50.6881 57.6103 50.6881 59.1297Z" fill="white"/>
<path d="M73.4279 59.1297C73.4279 60.6491 72.2845 61.7886 70.7601 61.7886C69.2356 61.7886 68.0923 60.6491 68.0923 59.1297C68.0923 57.6103 69.2356 56.4707 70.7601 56.4707C72.2845 56.4707 73.4279 57.6103 73.4279 59.1297Z" fill="white"/>
<path d="M96.1676 59.1297C96.1676 60.6491 95.0243 61.7886 93.4998 61.7886C91.9754 61.7886 90.832 60.6491 90.832 59.1297C90.832 57.6103 91.9754 56.4707 93.4998 56.4707C94.8972 56.4707 96.1676 57.6103 96.1676 59.1297Z" fill="white"/>
<path d="M118.908 59.1297C118.908 60.6491 117.765 61.7886 116.24 61.7886C114.716 61.7886 113.572 60.6491 113.572 59.1297C113.572 57.6103 114.716 56.4707 116.24 56.4707C117.765 56.4707 118.908 57.6103 118.908 59.1297Z" fill="white"/>
<path d="M141.52 59.1297C141.52 60.6491 140.377 61.7886 138.852 61.7886C137.328 61.7886 136.185 60.6491 136.185 59.1297C136.185 57.6103 137.328 56.4707 138.852 56.4707C140.377 56.4707 141.52 57.6103 141.52 59.1297Z" fill="white"/>
<path d="M164.26 59.1297C164.26 60.6491 163.117 61.7886 161.592 61.7886C160.068 61.7886 158.924 60.6491 158.924 59.1297C158.924 57.6103 160.068 56.4707 161.592 56.4707C163.117 56.4707 164.26 57.6103 164.26 59.1297Z" fill="white"/>
<path d="M187 59.1297C187 60.6491 185.857 61.7886 184.332 61.7886C182.808 61.7886 181.665 60.6491 181.665 59.1297C181.665 57.6103 182.808 56.4707 184.332 56.4707C185.73 56.4707 187 57.6103 187 59.1297Z" fill="white"/>
<path d="M5.3356 2.65896C5.3356 4.17837 4.19226 5.31793 2.6678 5.31793C1.14334 5.31793 0 4.17837 0 2.65896C0 1.13956 1.14334 0 2.6678 0C4.19226 0 5.3356 1.13956 5.3356 2.65896Z" fill="white"/>
<path d="M28.0753 2.65896C28.0753 4.17837 26.932 5.31793 25.4075 5.31793C23.8831 5.31793 22.7397 4.17837 22.7397 2.65896C22.7397 1.13956 23.8831 0 25.4075 0C26.805 0 28.0753 1.13956 28.0753 2.65896Z" fill="white"/>
<path d="M50.6881 2.65896C50.6881 4.17837 49.5448 5.31793 48.0203 5.31793C46.4959 5.31793 45.3525 4.17837 45.3525 2.65896C45.3525 1.13956 46.6229 0 48.0203 0C49.5448 0 50.6881 1.13956 50.6881 2.65896Z" fill="white"/>
<path d="M73.4279 2.65896C73.4279 4.17837 72.2845 5.31793 70.7601 5.31793C69.2356 5.31793 68.0923 4.17837 68.0923 2.65896C68.0923 1.13956 69.3627 0 70.7601 0C72.1575 0 73.4279 1.13956 73.4279 2.65896Z" fill="white"/>
<path d="M96.1676 2.65896C96.1676 4.17837 95.0243 5.31793 93.4998 5.31793C91.9754 5.31793 90.832 4.17837 90.832 2.65896C90.832 1.13956 91.9754 0 93.4998 0C94.8972 0 96.1676 1.13956 96.1676 2.65896Z" fill="white"/>
<path d="M118.908 2.65896C118.908 4.17837 117.765 5.31793 116.24 5.31793C114.716 5.31793 113.572 4.17837 113.572 2.65896C113.572 1.13956 114.716 0 116.24 0C117.765 0 118.908 1.13956 118.908 2.65896Z" fill="white"/>
<path d="M141.52 2.65896C141.52 4.17837 140.377 5.31793 138.852 5.31793C137.328 5.31793 136.185 4.17837 136.185 2.65896C136.185 1.13956 137.328 0 138.852 0C140.377 0 141.52 1.13956 141.52 2.65896Z" fill="white"/>
<path d="M164.26 2.65896C164.26 4.17837 163.117 5.31793 161.592 5.31793C160.068 5.31793 158.924 4.17837 158.924 2.65896C158.924 1.13956 160.068 0 161.592 0C163.117 0 164.26 1.13956 164.26 2.65896Z" fill="white"/>
<path d="M187 2.65896C187 4.17837 185.857 5.31793 184.332 5.31793C182.808 5.31793 181.665 4.17837 181.665 2.65896C181.665 1.13956 182.808 0 184.332 0C185.73 0 187 1.13956 187 2.65896Z" fill="white"/>
<path d="M5.3356 21.5242C5.3356 23.0436 4.19226 24.1832 2.6678 24.1832C1.14334 24.1832 0 22.917 0 21.5242C0 20.0048 1.14334 18.8652 2.6678 18.8652C4.19226 18.8652 5.3356 20.0048 5.3356 21.5242Z" fill="white"/>
<path d="M28.0753 21.5242C28.0753 23.0436 26.932 24.1832 25.4075 24.1832C23.8831 24.1832 22.7397 23.0436 22.7397 21.5242C22.7397 20.0048 23.8831 18.8652 25.4075 18.8652C26.805 18.8652 28.0753 20.0048 28.0753 21.5242Z" fill="white"/>
<path d="M50.6881 21.5242C50.6881 23.0436 49.5448 24.1832 48.0203 24.1832C46.4959 24.1832 45.3525 23.0436 45.3525 21.5242C45.3525 20.0048 46.4959 18.8652 48.0203 18.8652C49.5448 18.8652 50.6881 20.0048 50.6881 21.5242Z" fill="white"/>
<path d="M73.4279 21.5242C73.4279 23.0436 72.2845 24.1832 70.7601 24.1832C69.2356 24.1832 68.0923 23.0436 68.0923 21.5242C68.0923 20.0048 69.2356 18.8652 70.7601 18.8652C72.2845 18.8652 73.4279 20.0048 73.4279 21.5242Z" fill="white"/>
<path d="M96.1676 21.5242C96.1676 23.0436 95.0243 24.1832 93.4998 24.1832C91.9754 24.1832 90.832 23.0436 90.832 21.5242C90.832 20.0048 91.9754 18.8652 93.4998 18.8652C94.8972 18.8652 96.1676 20.0048 96.1676 21.5242Z" fill="white"/>
<path d="M118.908 21.5242C118.908 23.0436 117.765 24.1832 116.24 24.1832C114.716 24.1832 113.572 23.0436 113.572 21.5242C113.572 20.0048 114.716 18.8652 116.24 18.8652C117.765 18.8652 118.908 20.0048 118.908 21.5242Z" fill="white"/>
<path d="M141.52 21.5242C141.52 23.0436 140.377 24.1832 138.852 24.1832C137.328 24.1832 136.185 23.0436 136.185 21.5242C136.185 20.0048 137.328 18.8652 138.852 18.8652C140.377 18.8652 141.52 20.0048 141.52 21.5242Z" fill="white"/>
<path d="M164.26 21.5242C164.26 23.0436 163.117 24.1832 161.592 24.1832C160.068 24.1832 158.924 23.0436 158.924 21.5242C158.924 20.0048 160.068 18.8652 161.592 18.8652C163.117 18.8652 164.26 20.0048 164.26 21.5242Z" fill="white"/>
<path d="M187 21.5242C187 23.0436 185.857 24.1832 184.332 24.1832C182.808 24.1832 181.665 23.0436 181.665 21.5242C181.665 20.0048 182.808 18.8652 184.332 18.8652C185.73 18.8652 187 20.0048 187 21.5242Z" fill="white"/>
<path d="M5.3356 77.8699C5.3356 79.3893 4.19226 80.5289 2.6678 80.5289C1.14334 80.5289 0 79.3893 0 77.8699C0 76.3505 1.14334 75.2109 2.6678 75.2109C4.19226 75.2109 5.3356 76.4771 5.3356 77.8699Z" fill="white"/>
<path d="M28.0753 77.8699C28.0753 79.3893 26.932 80.5289 25.4075 80.5289C23.8831 80.5289 22.7397 79.3893 22.7397 77.8699C22.7397 76.3505 23.8831 75.2109 25.4075 75.2109C26.805 75.2109 28.0753 76.4771 28.0753 77.8699Z" fill="white"/>
<path d="M50.6881 77.8699C50.6881 79.3893 49.5448 80.5289 48.0203 80.5289C46.4959 80.5289 45.3525 79.3893 45.3525 77.8699C45.3525 76.3505 46.4959 75.2109 48.0203 75.2109C49.5448 75.2109 50.6881 76.4771 50.6881 77.8699Z" fill="white"/>
<path d="M73.4279 77.8699C73.4279 79.3893 72.2845 80.5289 70.7601 80.5289C69.2356 80.5289 68.0923 79.3893 68.0923 77.8699C68.0923 76.3505 69.2356 75.2109 70.7601 75.2109C72.2845 75.2109 73.4279 76.4771 73.4279 77.8699Z" fill="white"/>
<path d="M96.1676 77.8699C96.1676 79.3893 95.0243 80.5289 93.4998 80.5289C91.9754 80.5289 90.832 79.3893 90.832 77.8699C90.832 76.3505 91.9754 75.2109 93.4998 75.2109C94.8972 75.2109 96.1676 76.4771 96.1676 77.8699Z" fill="white"/>
<path d="M118.908 77.8699C118.908 79.3893 117.765 80.5289 116.24 80.5289C114.716 80.5289 113.572 79.3893 113.572 77.8699C113.572 76.3505 114.716 75.2109 116.24 75.2109C117.765 75.2109 118.908 76.4771 118.908 77.8699Z" fill="white"/>
<path d="M141.52 77.8699C141.52 79.3893 140.377 80.5289 138.852 80.5289C137.328 80.5289 136.185 79.3893 136.185 77.8699C136.185 76.3505 137.328 75.2109 138.852 75.2109C140.377 75.2109 141.52 76.4771 141.52 77.8699Z" fill="white"/>
<path d="M164.26 77.8699C164.26 79.3893 163.117 80.5289 161.592 80.5289C160.068 80.5289 158.924 79.3893 158.924 77.8699C158.924 76.3505 160.068 75.2109 161.592 75.2109C163.117 75.2109 164.26 76.4771 164.26 77.8699Z" fill="white"/>
<path d="M187 77.8699C187 79.3893 185.857 80.5289 184.332 80.5289C182.808 80.5289 181.665 79.3893 181.665 77.8699C181.665 76.3505 182.808 75.2109 184.332 75.2109C185.73 75.2109 187 76.4771 187 77.8699Z" fill="white"/>
<path d="M5.3356 96.7351C5.3356 98.2545 4.19226 99.3941 2.6678 99.3941C1.14334 99.3941 0 98.2545 0 96.7351C0 95.2157 1.14334 94.0762 2.6678 94.0762C4.19226 94.0762 5.3356 95.2157 5.3356 96.7351Z" fill="white"/>
<path d="M28.0753 96.7351C28.0753 98.2545 26.932 99.3941 25.4075 99.3941C23.8831 99.3941 22.7397 98.2545 22.7397 96.7351C22.7397 95.2157 23.8831 94.0762 25.4075 94.0762C26.805 94.0762 28.0753 95.2157 28.0753 96.7351Z" fill="white"/>
<path d="M50.6881 96.7351C50.6881 98.2545 49.5448 99.3941 48.0203 99.3941C46.4959 99.3941 45.3525 98.2545 45.3525 96.7351C45.3525 95.2157 46.4959 94.0762 48.0203 94.0762C49.5448 94.0762 50.6881 95.2157 50.6881 96.7351Z" fill="white"/>
<path d="M70.7601 99.3941C72.2335 99.3941 73.4279 98.2036 73.4279 96.7351C73.4279 95.2666 72.2335 94.0762 70.7601 94.0762C69.2867 94.0762 68.0923 95.2666 68.0923 96.7351C68.0923 98.2036 69.2867 99.3941 70.7601 99.3941Z" fill="white"/>
<path d="M96.1676 96.7351C96.1676 98.2545 95.0243 99.3941 93.4998 99.3941C91.9754 99.3941 90.832 98.2545 90.832 96.7351C90.832 95.2157 91.9754 94.0762 93.4998 94.0762C94.8972 94.0762 96.1676 95.2157 96.1676 96.7351Z" fill="white"/>
<path d="M118.908 96.7351C118.908 98.2545 117.765 99.3941 116.24 99.3941C114.716 99.3941 113.572 98.2545 113.572 96.7351C113.572 95.2157 114.716 94.0762 116.24 94.0762C117.765 94.0762 118.908 95.2157 118.908 96.7351Z" fill="white"/>
<path d="M141.52 96.7351C141.52 98.2545 140.377 99.3941 138.852 99.3941C137.328 99.3941 136.185 98.2545 136.185 96.7351C136.185 95.2157 137.328 94.0762 138.852 94.0762C140.377 94.0762 141.52 95.2157 141.52 96.7351Z" fill="white"/>
<path d="M161.592 99.3941C163.065 99.3941 164.26 98.2036 164.26 96.7351C164.26 95.2666 163.065 94.0762 161.592 94.0762C160.119 94.0762 158.924 95.2666 158.924 96.7351C158.924 98.2036 160.119 99.3941 161.592 99.3941Z" fill="white"/>
<path d="M187 96.7351C187 98.2545 185.857 99.3941 184.332 99.3941C182.808 99.3941 181.665 98.2545 181.665 96.7351C181.665 95.2157 182.808 94.0762 184.332 94.0762C185.73 94.0762 187 95.2157 187 96.7351Z" fill="white"/>
<path d="M5.3356 115.602C5.3356 117.122 4.19226 118.261 2.6678 118.261C1.14334 118.261 0 117.122 0 115.602C0 114.083 1.14334 112.943 2.6678 112.943C4.19226 112.943 5.3356 114.083 5.3356 115.602Z" fill="white"/>
<path d="M28.0753 115.602C28.0753 117.122 26.932 118.261 25.4075 118.261C23.8831 118.261 22.7397 117.122 22.7397 115.602C22.7397 114.083 23.8831 112.943 25.4075 112.943C26.805 112.943 28.0753 114.083 28.0753 115.602Z" fill="white"/>
<path d="M50.6881 115.602C50.6881 117.122 49.5448 118.261 48.0203 118.261C46.4959 118.261 45.3525 117.122 45.3525 115.602C45.3525 114.083 46.4959 112.943 48.0203 112.943C49.5448 112.943 50.6881 114.083 50.6881 115.602Z" fill="white"/>
<path d="M73.4279 115.602C73.4279 117.122 72.2845 118.261 70.7601 118.261C69.2356 118.261 68.0923 117.122 68.0923 115.602C68.0923 114.083 69.2356 112.943 70.7601 112.943C72.2845 112.943 73.4279 114.083 73.4279 115.602Z" fill="white"/>
<path d="M96.1676 115.602C96.1676 117.122 95.0243 118.261 93.4998 118.261C91.9754 118.261 90.832 117.122 90.832 115.602C90.832 114.083 91.9754 112.943 93.4998 112.943C94.8972 112.943 96.1676 114.083 96.1676 115.602Z" fill="white"/>
<path d="M118.908 115.602C118.908 117.122 117.765 118.261 116.24 118.261C114.716 118.261 113.572 117.122 113.572 115.602C113.572 114.083 114.716 112.943 116.24 112.943C117.765 112.943 118.908 114.083 118.908 115.602Z" fill="white"/>
<path d="M141.52 115.602C141.52 117.122 140.377 118.261 138.852 118.261C137.328 118.261 136.185 117.122 136.185 115.602C136.185 114.083 137.328 112.943 138.852 112.943C140.377 112.943 141.52 114.083 141.52 115.602Z" fill="white"/>
<path d="M164.26 115.602C164.26 117.122 163.117 118.261 161.592 118.261C160.068 118.261 158.924 117.122 158.924 115.602C158.924 114.083 160.068 112.943 161.592 112.943C163.117 112.943 164.26 114.083 164.26 115.602Z" fill="white"/>
<path d="M187 115.602C187 117.122 185.857 118.261 184.332 118.261C182.808 118.261 181.665 117.122 181.665 115.602C181.665 114.083 182.808 112.943 184.332 112.943C185.73 112.943 187 114.083 187 115.602Z" fill="white"/>
<path d="M5.3356 134.341C5.3356 135.86 4.19226 137 2.6678 137C1.14334 137 0 135.86 0 134.341C0 132.821 1.14334 131.682 2.6678 131.682C4.19226 131.682 5.3356 132.948 5.3356 134.341Z" fill="white"/>
<path d="M28.0753 134.341C28.0753 135.86 26.932 137 25.4075 137C23.8831 137 22.7397 135.86 22.7397 134.341C22.7397 132.821 23.8831 131.682 25.4075 131.682C26.805 131.682 28.0753 132.948 28.0753 134.341Z" fill="white"/>
<path d="M50.6881 134.341C50.6881 135.86 49.5448 137 48.0203 137C46.4959 137 45.3525 135.86 45.3525 134.341C45.3525 132.821 46.4959 131.682 48.0203 131.682C49.5448 131.682 50.6881 132.948 50.6881 134.341Z" fill="white"/>
<path d="M73.4279 134.341C73.4279 135.86 72.2845 137 70.7601 137C69.2356 137 68.0923 135.86 68.0923 134.341C68.0923 132.821 69.2356 131.682 70.7601 131.682C72.2845 131.682 73.4279 132.948 73.4279 134.341Z" fill="white"/>
<path d="M96.1676 134.341C96.1676 135.86 95.0243 137 93.4998 137C91.9754 137 90.832 135.86 90.832 134.341C90.832 132.821 91.9754 131.682 93.4998 131.682C94.8972 131.682 96.1676 132.948 96.1676 134.341Z" fill="white"/>
<path d="M118.908 134.341C118.908 135.86 117.765 137 116.24 137C114.716 137 113.572 135.86 113.572 134.341C113.572 132.821 114.716 131.682 116.24 131.682C117.765 131.682 118.908 132.948 118.908 134.341Z" fill="white"/>
<path d="M141.52 134.341C141.52 135.86 140.377 137 138.852 137C137.328 137 136.185 135.86 136.185 134.341C136.185 132.821 137.328 131.682 138.852 131.682C140.377 131.682 141.52 132.948 141.52 134.341Z" fill="white"/>
<path d="M164.26 134.341C164.26 135.86 163.117 137 161.592 137C160.068 137 158.924 135.86 158.924 134.341C158.924 132.821 160.068 131.682 161.592 131.682C163.117 131.682 164.26 132.948 164.26 134.341Z" fill="white"/>
<path d="M187 134.341C187 135.86 185.857 137 184.332 137C182.808 137 181.665 135.86 181.665 134.341C181.665 132.821 182.808 131.682 184.332 131.682C185.73 131.682 187 132.948 187 134.341Z" fill="white"/>
</g>
<defs>
<clipPath id="clip0_2234_8808">
<rect width="187" height="137" fill="white"/>
</clipPath>
</defs>
</svg>
