<svg width="18" height="12" viewBox="0 0 18 12" fill="none" xmlns="http://www.w3.org/2000/svg">
<path d="M14.9393 7.35355C15.0823 7.21055 15.1251 6.9955 15.0477 6.80866C14.9703 6.62182 14.788 6.5 14.5858 6.5H1C0.723858 6.5 0.5 6.27614 0.5 6C0.5 5.72386 0.723858 5.5 1 5.5H14.5858C14.788 5.5 14.9703 5.37818 15.0477 5.19134C15.1251 5.0045 15.0823 4.78945 14.9393 4.64645L12.1464 1.85355L11.825 2.17497L12.1464 1.85355C11.9512 1.65829 11.9512 1.34171 12.1464 1.14645L11.7929 0.792893L12.1464 1.14645C12.3417 0.951185 12.6583 0.951185 12.8536 1.14645L17.3536 5.64645C17.5488 5.84171 17.5488 6.15829 17.3536 6.35355L12.8536 10.8536C12.6583 11.0488 12.3417 11.0488 12.1464 10.8536C11.9512 10.6583 11.9512 10.3417 12.1464 10.1464L14.9393 7.35355Z" fill="white" stroke="#050505" stroke-linecap="round" stroke-linejoin="round"/>
</svg>
